PathFileType	4	(X/Y/Z)	Patient4_TMGait_0pt3_03_right_27.trc.trc
DataRate	CameraRate	NumFrames	NumMarkers	Units	OrigDataRate	OrigDataStartFrame	OrigNumFrames
52.631578947368	52.631578947368	4	33	mm	52.631578947368	71	       141
Frame#	Time	Sacral			L.Shoulder			Chest			R.Shoulder			Neck			R.ASIS			L.ASIS			R.Thigh.Superior			R.Thigh.Lateral			R.Thigh.Inferior			R.Patella			L.Thigh.Superior			L.Thigh.Lateral			L.Thigh.Inferior			L.Patella			L.Shank.Superior			L.Shank.Lateral			L.Shank.Inferior			R.Shank.Superior			R.Shank.Lateral			R.Shank.Inferior			R.Heel			R.Midfoot.Superior			R.Midfoot.Lateral			R.Toe			L.Heel			L.Midfoot.Lateral			L.Midfoot.Superior			L.Toe			L.Elbow			L.Wrist			R.Elbow			R.Wrist			
		X1	Y1	Z1	X2	Y2	Z2	X3	Y3	Z3	X4	Y4	Z4	X5	Y5	Z5	X6	Y6	Z6	X7	Y7	Z7	X8	Y8	Z8	X9	Y9	Z9	X10	Y10	Z10	X11	Y11	Z11	X12	Y12	Z12	X13	Y13	Z13	X14	Y14	Z14	X15	Y15	Z15	X16	Y16	Z16	X17	Y17	Z17	X18	Y18	Z18	X19	Y19	Z19	X20	Y20	Z20	X21	Y21	Z21	X22	Y22	Z22	X23	Y23	Z23	X24	Y24	Z24	X25	Y25	Z25	X26	Y26	Z26	X27	Y27	Z27	X28	Y28	Z28	X29	Y29	Z29	X30	Y30	Z30	X31	Y31	Z31	X32	Y32	Z32	X33	Y33	Z33	

71	51.750000000000	673.124067151017	1003.643070987867	603.828750430431	826.062938710790	1423.425020294503	390.218046551464	953.904730021021	1354.389037560430	531.749601074033	905.887095912236	1432.242555801792	716.260863155387	836.036645917761	1487.676709280715	547.838561398521	914.573589463895	928.846703192511	682.054854600256	859.903635350626	955.313202101398	413.053419874769	920.231514343763	719.473095861298	642.137625004728	833.217272803196	615.964233045425	709.794130083783	888.625009910573	559.067387579321	618.591691680242	875.116768032615	469.189355194018	623.562271638199	931.409526608621	761.262525426724	435.396028443917	865.265741316767	637.155196329230	363.698351708933	966.529080697933	572.904122501312	421.506030058602	986.981862042942	509.239178536158	419.477577076911	970.186390148246	438.354042507931	407.035601239013	902.372769808131	310.938811400728	351.157053428640	987.012981297791	208.567413234155	404.999447208387	830.047623633125	385.660704792671	632.422524843727	745.606891477560	293.346257334705	697.279170082591	763.898370951023	196.104209740961	629.433956865222	604.150608521983	43.688943105539	600.329278753375	776.006785845002	95.372809065595	637.164435634097	686.151397508620	36.907602493817	675.950258151216	894.538530390807	41.971338969011	669.042330913785	894.613386466827	36.491817435124	434.810412119111	973.268159668617	37.368097632113	358.739046654138	1048.988271087252	108.062385894834	386.513588773505	1181.323667602489	68.487061496016	366.462971184117	668.393096859420	1106.539541265389	308.207579663267	629.786659728237	848.794362352830	339.431420077957	1067.146834218833	1139.698066072569	842.163283967324	1316.599653870066	1180.685996507952	802.436343170471	
72	51.769000000000	673.598058745770	1003.079455962948	600.698697599751	826.381231006076	1421.823769826392	385.187653471928	954.545490696695	1353.198392198538	526.688965296869	906.912465752633	1431.788807260280	710.940620190258	836.584697025509	1486.709832478838	542.497715692899	915.111217354989	928.018578855901	678.883962079828	859.867472726624	954.037629015470	409.960439992604	919.601678492693	718.364407414383	639.629332236559	831.727929119429	615.520917145812	707.599271645134	886.602071079358	557.924061516720	616.758667948475	872.113777471383	468.123830759923	621.943650492134	930.977288203268	759.459465547556	431.819158038130	862.591474506381	635.287243510197	362.052826090049	964.356966319641	571.311459227140	418.852445504261	983.374038851940	507.324909517501	417.730775585418	967.181537436542	436.293007917402	405.416646713262	899.065212644502	308.867789799305	350.573373264507	983.509115812986	206.819740868465	404.875170378966	826.542813394300	384.994363384197	631.100382156311	741.499023111356	293.505320466877	696.430950589596	759.041352887843	195.887775270392	628.937699456153	598.481036633184	43.933766380565	600.346509007385	770.442859004938	95.430598269307	637.177178776698	680.484283560333	36.996953792617	675.938535520288	888.842699648977	41.823932620655	669.066855740732	890.118803064514	36.196176213491	435.522244011201	968.526307356177	36.735300754005	359.100457663352	1045.104074295266	106.106378552804	387.263173293635	1176.882985210649	64.938403081079	366.694331950414	670.974494897191	1103.305939006927	305.100388208583	635.836039536013	845.028707550151	338.345221327503	1070.728349746525	1140.953081615428	836.374537678938	1318.773120236163	1187.749877936883	795.041324414899	
73	51.788000000000	674.174626577198	1002.596700799344	597.383696055295	826.846750306332	1420.300376804182	380.003915603436	955.310203723871	1352.069195239581	521.493412792783	908.035348704535	1431.387317307551	705.485250902525	837.238843609971	1485.808175070597	536.993280758895	915.719201793460	927.273385293834	675.509253136882	859.987846023627	952.925355417889	406.652033964609	919.169487877906	717.310864093991	637.000850439823	830.448432558722	615.116873408705	705.251289892279	884.860331877543	556.826103115373	614.796858626010	869.484497517011	467.066138122839	620.214439423120	931.206074464030	758.364392470882	428.505116768483	861.370447533956	633.981051370992	360.381635660094	963.528119393776	570.394834023564	416.411778611560	981.113671141934	505.803215362117	416.082066695063	965.236169885226	434.470478438181	403.876682854428	896.296731190618	307.396337037665	349.793343355517	979.821874080258	205.190719859404	404.728128907433	823.277516119561	384.361053145648	629.665705478819	737.567843004404	293.799766233212	695.498347290097	754.322381548646	195.762854715988	628.397187541097	592.856451736003	44.359571923025	600.368717885951	764.974524556608	95.554267385295	637.231449657249	674.860535940010	37.189087669743	675.915906343798	883.171800563515	41.613600728800	669.103470818858	884.555788182918	36.214929196030	436.148170119827	962.672720816160	36.285623313651	359.326717481601	1040.284930071424	104.211508223404	387.848076388665	1171.435067696984	61.242670881155	366.653469487008	674.538150644519	1099.737043269197	301.503289555953	643.287387462734	840.958649757264	336.334601771899	1073.695082674228	1141.820228679110	830.590078868784	1320.486396352392	1193.283519594916	787.853174827197	
74	51.807000000000	674.837877416579	1002.288764684545	593.879064944557	827.427267599570	1418.949436289618	374.718627283214	956.180873022072	1351.090784803996	516.196250529450	909.260777017783	1431.124881004048	699.937346570727	837.983047302570	1485.052762422441	531.386302735107	916.366063946823	926.679477573107	671.950153871317	860.287443957224	952.051954376752	403.134870186116	918.788661702912	716.364749481891	634.286642187097	829.206617063580	614.841786968207	702.809435079438	883.210696692089	555.843927423735	612.764399756151	867.037646018169	466.105897103919	618.446367863814	932.025672572297	757.962986150009	425.499701330820	861.509029505858	633.249051425400	358.622759917298	963.859844608820	570.066036428925	414.193828504619	980.073909907073	504.682438035200	414.554939083731	964.260822173681	432.933355957204	402.454657350160	894.179720190633	306.472998542068	348.770852850576	976.157927966726	203.728663818363	404.575900826689	820.113241919927	383.841614722523	628.180809724203	733.699042404602	294.273684534955	694.513537422652	749.691677320557	195.784326490114	627.842427612615	587.280109173857	45.006379065340	600.397780111848	759.601552070381	95.744741352513	637.313519686376	669.282292330379	37.514080167162	675.886145836967	877.526445016839	41.343356832626	669.149392490528	878.386241357737	36.413741518810	436.620580538625	956.229752201862	35.973143564487	359.417470146860	1034.893926814398	102.499449532740	388.282007384623	1165.438305882153	57.773945341858	366.471957957638	678.833139940687	1096.071646484389	297.436192041779	651.923654081007	836.830490685177	333.331639903198	1076.114483502562	1142.405405760788	824.835487235254	1321.883590928444	1197.334337934185	780.893734235124	
